<svg width="41" height="41" viewBox="0 0 41 41" fill="none" xmlns="http://www.w3.org/2000/svg">
<path d="M20.4979 20.3973C18.5901 20.3973 17.0304 19.7914 15.8187 18.5798C14.6068 17.3678 14.0008 15.808 14.0008 13.9002C14.0008 11.9924 14.6068 10.432 15.8187 9.21893C17.0304 8.00559 18.5901 7.39893 20.4979 7.39893C22.4057 7.39893 23.9678 8.00559 25.1841 9.21893C26.4008 10.432 27.0091 11.9924 27.0091 13.9002C27.0091 15.808 26.4008 17.3678 25.1841 18.5798C23.9678 19.7914 22.4057 20.3973 20.4979 20.3973ZM6.91748 31.4418V30.0948C6.91748 28.9973 7.19415 28.053 7.74748 27.2618C8.30054 26.4705 9.01484 25.8695 9.8904 25.4589C11.7648 24.6189 13.5661 23.9889 15.2941 23.5689C17.0219 23.1489 18.7564 22.9389 20.4975 22.9389C22.2511 22.9389 23.9843 23.1559 25.6971 23.5898C27.4098 24.0236 29.199 24.6493 31.0646 25.4668C31.9779 25.8724 32.711 26.4696 33.2637 27.2585C33.8162 28.0474 34.0925 28.9928 34.0925 30.0948V31.4418C34.0925 32.2221 33.8153 32.8903 33.2608 33.4464C32.7064 34.0025 32.034 34.2806 31.2437 34.2806H9.75623C8.96873 34.2806 8.29873 34.0025 7.74623 33.4464C7.19373 32.8903 6.91748 32.2221 6.91748 31.4418ZM9.75623 31.4418H31.2437V30.1348C31.2437 29.6945 31.1118 29.2748 30.8479 28.8756C30.584 28.4761 30.2576 28.1803 29.8687 27.9881C28.1173 27.1467 26.5139 26.5696 25.0583 26.2568C23.6028 25.9441 22.0816 25.7877 20.495 25.7877C18.9216 25.7877 17.39 25.9441 15.9 26.2568C14.41 26.5696 12.8079 27.1461 11.0937 27.9864C10.7021 28.1789 10.3812 28.4749 10.1312 28.8743C9.88123 29.2741 9.75623 29.6942 9.75623 30.1348V31.4418ZM20.4979 17.5585C21.556 17.5585 22.431 17.2132 23.1229 16.5227C23.8146 15.8318 24.1604 14.9571 24.1604 13.8985C24.1604 12.8371 23.8151 11.9617 23.1246 11.2723C22.4343 10.5828 21.5601 10.2381 20.5021 10.2381C19.444 10.2381 18.569 10.583 17.8771 11.2727C17.1854 11.9627 16.8396 12.8363 16.8396 13.8935C16.8396 14.9538 17.1848 15.8296 17.8754 16.521C18.5657 17.2127 19.4398 17.5585 20.4979 17.5585Z" fill="#1B2039"/>
</svg>
