<svg width="21" height="20" viewBox="0 0 21 20" fill="none" xmlns="http://www.w3.org/2000/svg">
<path d="M9.57088 1.29203C9.91462 0.475572 11.0854 0.475573 11.4291 1.29203L13.4579 6.11092C13.6029 6.45512 13.9306 6.6903 14.3067 6.72009L19.5727 7.13717C20.4649 7.20783 20.8267 8.30782 20.1469 8.88309L16.1348 12.2784C15.8482 12.5209 15.723 12.9015 15.8106 13.264L17.0363 18.3407C17.244 19.2008 16.2969 19.8807 15.533 19.4198L11.0245 16.6992C10.7025 16.5049 10.2975 16.5049 9.97548 16.6992L5.46699 19.4198C4.70311 19.8807 3.75596 19.2008 3.96363 18.3407L5.18942 13.264C5.27698 12.9015 5.15182 12.5209 4.86526 12.2784L0.853062 8.88309C0.173282 8.30782 0.535068 7.20783 1.42729 7.13717L6.69336 6.72009C7.0695 6.6903 7.39716 6.45512 7.54207 6.11092L9.57088 1.29203Z" fill="#FF9A91"/>
</svg>
